<svg
    width="100"
    height="60"
    viewBox="0 0 100 60"
    fill="none"
    xmlns="http://www.w3.org/2000/svg"
>
    <!-- Lamp Base -->
    <path
        d="M20 45C12 45 5 42 5 36C5 30 15 26 25 26H75C85 26 95 30 95 36C95 42 88 45 80 45H20Z"
        fill="#D4A373"
        stroke="#A67C52"
        stroke-width="2"
        stroke-linecap="round"
        stroke-linejoin="round"
    />
    <!-- Lamp Spout -->
    <path
        d="M85 36C95 34 100 34 102 36C104 38 100 40 95 40"
        fill="#D4A373"
        stroke="#A67C52"
        stroke-width="2"
        stroke-linecap="round"
        stroke-linejoin="round"
    />
    <!-- Handle -->
    <path
        d="M12 30C5 30 2 33 2 36C2 39 5 42 12 42"
        stroke="#A67C52"
        stroke-width="2"
        stroke-linecap="round"
        stroke-linejoin="round"
    />
    <!-- Flame -->
    <path
        d="M50 20C45 15 47 10 50 5C53 10 55 15 50 20Z"
        fill="#FF9800"
        stroke="#E65100"
        stroke-width="2"
        stroke-linecap="round"
        stroke-linejoin="round"
    />
    <!-- Light Glow -->
    <circle cx="50" cy="15" r="5" fill="rgba(255, 152, 0, 0.3)" />
</svg>
