<?xml version="1.0" encoding="UTF-8"?>
<svg version="1.1" xmlns="http://www.w3.org/2000/svg" width="50" height="50" viewBox="0 0 512 512">
<path d="M0 0 C3.58854744 2.54235649 6.15202293 5.04615813 8.4921875 8.765625 C8.90210938 9.36375 9.31203125 9.961875 9.734375 10.578125 C14.04657462 18.19138778 12.82023764 27.31833393 12.4921875 35.765625 C13.23082031 35.97316406 13.96945312 36.18070313 14.73046875 36.39453125 C30.10638937 41.06396585 40.08126056 48.99053254 48.01171875 62.80078125 C50.24100704 67.26523986 51.4921875 70.74981428 51.4921875 75.765625 C52.25772949 75.74991455 53.02327148 75.7342041 53.81201172 75.71801758 C57.33032642 75.65508621 60.84852212 75.61645071 64.3671875 75.578125 C65.57117188 75.55298828 66.77515625 75.52785156 68.015625 75.50195312 C82.23186268 75.38605988 94.05073956 79.45574901 104.6796875 89.140625 C114.7776855 100.13480032 117.88697856 111.1338375 120.2109375 125.65698242 C120.46338473 127.18518732 120.71664839 128.71325754 120.97064209 130.24120617 C121.67453951 134.49703066 122.36356788 138.7551411 123.04884338 143.01399946 C123.50106929 145.82075001 123.95635491 148.62698918 124.41247559 151.43310928 C126.68989981 165.45058444 128.93474025 179.47319031 131.17240906 193.49705911 C132.14512111 199.59056269 133.12006753 205.68370884 134.09472656 211.77690125 C135.72980694 222.00071965 137.3634715 232.2247634 138.99609375 242.44897461 C141.27746181 256.7359021 143.56150662 271.02240072 145.84604645 285.30882132 C147.64531023 296.56126169 149.44377135 307.81383038 151.2421875 319.06640625 C151.43021439 320.24279293 151.61824127 321.41917962 151.81196594 322.63121438 C152.18443764 324.9616455 152.55687837 327.29208157 152.92928696 329.62252277 C153.2926087 331.89606734 153.6560035 334.16960023 154.01947403 336.44312102 C154.88764239 341.87547285 155.75372781 347.30814031 156.61505127 352.74158192 C158.01047465 361.53742405 159.40972906 370.33172392 160.88828659 379.11403853 C161.46852077 382.56576501 162.03862533 386.01912895 162.60779572 389.47269475 C162.86691056 391.02675596 163.13101458 392.57999689 163.40105438 394.13219702 C164.81151959 402.24238755 165.7116203 410.14490446 165.74511719 418.38789368 C165.7507688 419.49085227 165.7507688 419.49085227 165.75653458 420.61609286 C165.61273284 433.15104367 160.62976932 444.032368 152.23828125 453.23828125 C142.40924475 462.68867108 130.59440213 468.14862495 116.93359375 467.9609375 C116.14444077 467.9581076 115.35528778 467.95527771 114.54222107 467.95236206 C112.04621578 467.94125557 109.55058252 467.91616955 107.0546875 467.890625 C105.35221876 467.88058285 103.64974434 467.87145917 101.94726562 467.86328125 C97.79543174 467.8413476 93.64387248 467.80688477 89.4921875 467.765625 C89.70657471 468.34497803 89.92096191 468.92433105 90.1418457 469.52124023 C91.75921359 474.08330062 92.86574645 477.92857263 92.6796875 482.828125 C92.65261719 483.76785156 92.62554687 484.70757812 92.59765625 485.67578125 C92.54544922 486.71025391 92.54544922 486.71025391 92.4921875 487.765625 C93.51699219 487.70761719 94.54179687 487.64960938 95.59765625 487.58984375 C96.95828761 487.54292543 98.31896846 487.49742748 99.6796875 487.453125 C100.35322266 487.41123047 101.02675781 487.36933594 101.72070312 487.32617188 C105.58328398 487.23196259 107.32050082 487.63714424 110.44140625 489.97265625 C112.60498728 492.91924756 113.17334566 494.17150258 113.1171875 497.765625 C113.13007813 498.590625 113.14296875 499.415625 113.15625 500.265625 C112.17398564 503.9635614 110.46306904 505.38608717 107.4921875 507.765625 C104.53447934 508.26051899 102.15354604 508.45145613 99.20117188 508.41259766 C98.37941971 508.42135925 97.55766754 508.43012085 96.71101379 508.43914795 C94.00211354 508.46110539 91.29485355 508.44660294 88.5859375 508.4296875 C86.69933764 508.4330567 84.8127399 508.43791019 82.92614746 508.44418335 C78.97513126 508.4515497 75.02468083 508.44085688 71.07373047 508.41748047 C66.01258053 508.38899274 60.95275628 508.405398 55.89165497 508.43534279 C51.99678584 508.45342222 48.10223033 508.44765479 44.20735168 508.43470383 C42.34145449 508.4313716 40.47552871 508.43545047 38.60966492 508.44710159 C36.00007871 508.45982119 33.39263032 508.44041961 30.78320312 508.41259766 C30.01422195 508.42271881 29.24524078 508.43283997 28.45295715 508.44326782 C24.55372742 508.36636265 22.64219523 507.87635619 19.47399902 505.53768921 C17.4921875 502.765625 17.4921875 502.765625 17.4921875 497.765625 C9.2421875 497.765625 0.9921875 497.765625 -7.5078125 497.765625 C-7.5078125 499.415625 -7.5078125 501.065625 -7.5078125 502.765625 C-9.58481707 505.88113186 -11.15749139 507.48891986 -14.890625 508.25390625 C-19.46132343 508.49267408 -21.81779024 508.24864058 -25.6328125 505.578125 C-27.5078125 502.765625 -27.5078125 502.765625 -27.5078125 497.765625 C-35.7578125 497.765625 -44.0078125 497.765625 -52.5078125 497.765625 C-52.5078125 499.415625 -52.5078125 501.065625 -52.5078125 502.765625 C-55.1910055 506.51874844 -56.71962399 507.63374256 -61.30236816 508.40054321 C-62.8009021 508.43009905 -64.30013256 508.43232315 -65.79882812 508.41259766 C-66.62058029 508.42135925 -67.44233246 508.43012085 -68.28898621 508.43914795 C-70.99788646 508.46110539 -73.70514645 508.44660294 -76.4140625 508.4296875 C-78.30066236 508.4330567 -80.1872601 508.43791019 -82.07385254 508.44418335 C-86.02486874 508.4515497 -89.97531917 508.44085688 -93.92626953 508.41748047 C-98.98741947 508.38899274 -104.04724372 508.405398 -109.10834503 508.43534279 C-113.00321416 508.45342222 -116.89776967 508.44765479 -120.79264832 508.43470383 C-122.65854551 508.4313716 -124.52447129 508.43545047 -126.39033508 508.44710159 C-128.99992129 508.45982119 -131.60736968 508.44041961 -134.21679688 508.41259766 C-134.98577805 508.42271881 -135.75475922 508.43283997 -136.54704285 508.44326782 C-140.54656872 508.36438449 -142.32279755 507.91381336 -145.48449707 505.38143921 C-148.27420551 501.77480484 -148.25043533 499.55937315 -147.9609375 495.14453125 C-147.5078125 492.765625 -147.5078125 492.765625 -145.8828125 489.703125 C-140.46027147 486.59018478 -134.65929573 486.8571897 -128.5078125 486.765625 C-128.38664062 485.81300781 -128.26546875 484.86039062 -128.140625 483.87890625 C-127.97304687 482.62464844 -127.80546875 481.37039063 -127.6328125 480.078125 C-127.47039062 478.83675781 -127.30796875 477.59539062 -127.140625 476.31640625 C-126.57949465 473.16784148 -125.74042509 470.68924169 -124.5078125 467.765625 C-125.53551758 467.78657227 -126.56322266 467.80751953 -127.62207031 467.82910156 C-131.49106517 467.90234292 -135.36000085 467.94772524 -139.22949219 467.98535156 C-140.89366004 468.00527787 -142.55775964 468.03242928 -144.22167969 468.06738281 C-160.40910181 468.39853345 -173.58256129 465.7985429 -185.984375 454.51171875 C-196.31385949 443.75039962 -200.92226991 431.33618963 -200.86564893 416.58738166 C-200.62665547 405.10305271 -198.49481559 393.79793882 -196.63989258 382.48901367 C-196.2231634 379.88338251 -195.80755324 377.27759516 -195.39331055 374.67156982 C-194.38841505 368.36581971 -193.36883167 362.06253215 -192.34424827 355.75995459 C-191.14623609 348.38627589 -189.96411511 341.01007493 -188.7827284 333.63371745 C-186.66991081 320.44451875 -184.54436324 307.25740495 -182.41088867 294.0715332 C-180.3520513 281.34680593 -178.29996967 268.62101812 -176.2565918 255.89379883 C-176.06817111 254.72023468 -176.06817111 254.72023468 -175.87594394 253.52296218 C-175.37066806 250.3757428 -174.86542765 247.22851774 -174.36023717 244.08128465 C-170.46757172 219.83187834 -166.56876267 195.58343487 -162.64861298 171.3384552 C-162.2422163 168.82382778 -161.8363109 166.30912091 -161.43098259 163.79432106 C-160.32820192 156.95414031 -159.21389925 150.1160141 -158.08485246 143.2801187 C-157.57263046 140.16040237 -157.06894131 137.03941642 -156.56771022 133.91791904 C-156.03930019 130.6466893 -155.49644548 127.37787558 -154.95610046 124.1085968 C-154.76595047 122.90918494 -154.57580047 121.70977309 -154.37988836 120.47401541 C-151.98044779 106.16229921 -146.56624008 93.60847189 -134.5078125 84.765625 C-125.73813342 79.43364235 -117.52298687 75.61863365 -107.11328125 75.66796875 C-105.31020508 75.67280273 -105.31020508 75.67280273 -103.47070312 75.67773438 C-102.22482422 75.68611328 -100.97894531 75.69449219 -99.6953125 75.703125 C-98.43009766 75.70763672 -97.16488281 75.71214844 -95.86132812 75.71679688 C-92.7434414 75.72856249 -89.62565117 75.74500228 -86.5078125 75.765625 C-86.33765625 74.21294922 -86.33765625 74.21294922 -86.1640625 72.62890625 C-84.23023281 61.24463506 -76.84007646 51.7192429 -67.90625 44.73046875 C-61.51608599 40.39362833 -54.9170236 37.84744522 -47.5078125 35.765625 C-47.61222656 34.02539062 -47.61222656 34.02539062 -47.71875 32.25 C-48.18328211 21.17251309 -47.38471565 12.64999726 -39.8671875 3.84375 C-38.1686301 2.24043881 -36.48539723 1.00469261 -34.5078125 -0.234375 C-33.88648438 -0.64429688 -33.26515625 -1.05421875 -32.625 -1.4765625 C-22.455808 -7.08315125 -9.72162164 -5.63801363 0 0 Z M-26.5078125 21.765625 C-27.20628375 24.6053114 -27.20628375 26.9259386 -26.5078125 29.765625 C-24.51859364 32.7494533 -23.12278682 34.36839341 -19.5703125 35.2421875 C-15.64717758 35.52453433 -13.83668879 34.98487586 -10.5078125 32.765625 C-8.28856164 29.43674871 -7.74890317 27.62625992 -8.03125 23.703125 C-8.90504409 20.15065068 -10.5239842 18.75484386 -13.5078125 16.765625 C-19.32444453 15.33492115 -23.11596156 16.67784859 -26.5078125 21.765625 Z M-125.296875 105.46875 C-132.35598767 113.1885678 -133.45587632 122.02606555 -135.01831055 132.05786133 C-135.25534332 133.53488265 -135.49320346 135.01177139 -135.73181343 136.48853874 C-136.24986556 139.70612853 -136.76207147 142.92457696 -137.26984596 146.14380455 C-138.1003968 151.40935943 -138.94334269 156.67288803 -139.7877655 161.93623352 C-140.86939597 168.68408739 -141.94749086 175.43249159 -143.02181059 182.18151325 C-145.24672254 196.15728347 -147.49828421 210.12867338 -149.75634766 224.09912109 C-153.14241742 245.05376671 -156.51367695 266.01074775 -159.87330818 286.96964836 C-161.80827011 299.03938002 -163.74727284 311.10843627 -165.69555664 323.17602539 C-167.43447283 333.94682692 -169.16627783 344.71874296 -170.88940638 355.49208194 C-171.79065488 361.12543603 -172.69524169 366.75820289 -173.60849953 372.38962364 C-174.45715437 377.6234254 -175.29619894 382.85867865 -176.12797737 388.09518814 C-176.43243324 390.00124685 -176.74031138 391.90676283 -177.05200577 393.81165123 C-180.89647529 415.40354113 -180.89647529 415.40354113 -174.328125 435.7265625 C-169.71432323 441.97840041 -161.95552961 445.97467939 -154.39550781 447.3190918 C-147.28889066 448.13534417 -140.15885459 448.10884402 -133.01196289 448.1706543 C-131.13937954 448.19224168 -129.2668973 448.22635359 -127.39477539 448.27319336 C-116.36116287 448.54590381 -108.58451517 448.66729599 -99.5078125 441.765625 C-96.92575542 440.52720126 -94.27420242 439.57766744 -91.5703125 438.640625 C-90.88936523 438.39256104 -90.20841797 438.14449707 -89.50683594 437.88891602 C-86.411391 436.76585127 -83.30575789 435.6995368 -80.17578125 434.67578125 C-73.18493432 432.36144088 -73.18493432 432.36144088 -68.5078125 426.765625 C-71.12607647 425.02011569 -72.72643123 424.27926144 -75.65625 423.42578125 C-93.02784857 418.14199727 -109.91462027 411.09700191 -123.5078125 398.765625 C-124.5184375 398.023125 -125.5290625 397.280625 -126.5703125 396.515625 C-139.52095332 385.54610204 -146.74860307 368.36679472 -148.3203125 351.828125 C-150.72114979 299.94916263 -123.91971525 244.16107273 -103.3203125 197.703125 C-102.82635986 196.57729004 -102.33240723 195.45145508 -101.82348633 194.29150391 C-99.6211985 189.31264131 -97.37606367 184.42514272 -94.75390625 179.65234375 C-87.05380168 165.22525692 -87.53340025 151.76264255 -88.5078125 135.765625 C-89.48363281 135.70503906 -90.45945312 135.64445312 -91.46484375 135.58203125 C-92.73714844 135.49824219 -94.00945312 135.41445312 -95.3203125 135.328125 C-96.58488281 135.24691406 -97.84945312 135.16570312 -99.15234375 135.08203125 C-102.5078125 134.765625 -102.5078125 134.765625 -105.5078125 133.765625 C-107.00135188 129.28500687 -107.54685994 125.42160975 -106.5078125 120.765625 C-103.90634895 116.99948949 -100.75824063 113.96761959 -97.5078125 110.765625 C-95.01339097 107.83739103 -92.94302643 105.03548849 -91.2578125 101.578125 C-90.92265625 100.90394531 -90.5875 100.22976562 -90.2421875 99.53515625 C-89.38004182 97.77706325 -89.38004182 97.77706325 -89.5078125 95.765625 C-103.44983024 95.43101657 -114.68045163 95.36228583 -125.296875 105.46875 Z M54.4921875 95.765625 C56.66585874 104.75013281 61.57285429 110.09508565 68.19140625 116.37890625 C71.2309229 119.4706782 71.80074215 121.76706782 71.8671875 125.953125 C71.7499094 128.8895883 71.43005508 130.95202227 70.4921875 133.765625 C66.93132092 134.95258053 63.51887726 135.11657918 59.8046875 135.328125 C58.7518457 135.39290039 58.7518457 135.39290039 57.67773438 135.45898438 C55.94943544 135.5647986 54.2208364 135.66569081 52.4921875 135.765625 C49.29962119 158.14825961 56.13271946 173.08001017 65.96064758 192.59991455 C70.15688387 200.97223419 73.80479598 209.54577325 77.3671875 218.203125 C77.67610931 218.95004608 77.98503113 219.69696716 78.30331421 220.46652222 C123.59134064 330.14978502 123.59134064 330.14978502 109.3671875 370.515625 C106.56666806 377.17408714 102.77473206 382.9726038 98.4921875 388.765625 C98.04488281 389.39855469 97.59757812 390.03148437 97.13671875 390.68359375 C82.1461828 410.10210339 55.98471701 419.03166885 33.4921875 425.765625 C34.8942151 429.15385837 36.38142584 430.82716509 39.4921875 432.765625 C41.90164644 433.78882941 41.90164644 433.78882941 44.52734375 434.59765625 C45.49720215 434.91855225 46.46706055 435.23944824 47.46630859 435.57006836 C48.48547363 435.90272705 49.50463867 436.23538574 50.5546875 436.578125 C69.75219014 443.02562764 69.75219014 443.02562764 74.4921875 447.765625 C77.40508471 447.87941752 80.29330297 447.92982473 83.20703125 447.93359375 C84.09193741 447.93692215 84.97684357 447.94025055 85.88856506 447.94367981 C87.77083821 447.94875717 89.6531204 447.95108789 91.53540039 447.95092773 C94.38638736 447.95309213 97.23697337 447.97117711 100.08789062 447.99023438 C101.91926952 447.99317273 103.75065024 447.99515456 105.58203125 447.99609375 C106.42410629 448.00327927 107.26618134 448.01046478 108.1337738 448.01786804 C118.44108975 447.97904684 127.2417278 446.20639837 135.4921875 439.765625 C141.73029459 433.40932219 144.64896988 426.63359177 144.67038441 417.77294445 C144.60698307 411.16783305 143.83641065 404.8446504 142.76603699 398.33601379 C142.58031028 397.15589885 142.39458356 395.9757839 142.20322877 394.7599079 C141.69183383 391.52371055 141.17152231 388.28910231 140.64718711 385.05498135 C140.08150785 381.55172107 139.52760622 378.04659563 138.97215271 374.54170227 C137.88471892 367.69203439 136.78651065 360.84413686 135.68446919 353.99680571 C134.39983835 346.01270746 133.12557036 338.02696564 131.85157255 330.04116508 C129.57740416 315.78853188 127.29322938 301.53752032 125.00366211 287.28735352 C122.7847857 273.47714268 120.57402068 259.66566406 118.37182617 245.8527832 C115.96993528 230.78741829 113.56375815 215.72275025 111.14996892 200.65928668 C110.89237543 199.05172949 110.63478296 197.44417213 110.37719154 195.83661461 C110.25046461 195.04579281 110.12373767 194.25497102 109.99317053 193.44018492 C109.10261483 187.88115612 108.21497859 182.32166569 107.32839012 176.76200294 C106.24735067 169.98380802 105.16126369 163.20644379 104.06888124 156.43006734 C103.51221207 152.97619064 102.95766669 149.5220105 102.40907288 146.06684113 C101.81213944 142.31493923 101.20677819 138.56449035 100.59928894 134.81428528 C100.34392129 133.19038957 100.34392129 133.19038957 100.08339471 131.53368789 C98.06700469 119.21873423 95.61603789 109.34751002 85.4296875 101.390625 C75.93905702 94.77050657 65.66393795 95.62440905 54.4921875 95.765625 Z " fill="#000000" transform="translate(273.5078125,4.234375)"/>
<path d="M0 0 C35.64 0 71.28 0 108 0 C122.09808914 29.37101905 122.09808914 29.37101905 126.9375 40.9375 C127.2210434 41.6105719 127.50458679 42.2836438 127.79672241 42.97711182 C140.56282737 73.31466183 152.43923765 104.11433973 160.5 136.0625 C160.67230133 136.74040588 160.84460266 137.41831177 161.02212524 138.11676025 C162.94115177 145.72809006 164.56402122 153.15325744 165 161 C165.04398926 161.67893311 165.08797852 162.35786621 165.13330078 163.05737305 C165.93166335 177.97932653 162.64317192 190.89024158 152.8828125 202.5234375 C143.8050584 212.19645417 132.9793861 218.31651688 121.0625 223.8125 C119.90258545 224.3540271 119.90258545 224.3540271 118.71923828 224.90649414 C105.44025917 230.78866905 93.38726582 232.59742596 79.0625 232.25 C77.58921759 232.22986032 76.11590791 232.21162303 74.64257812 232.1953125 C71.09378907 232.15546085 67.54893755 232.07710426 64 232 C64 225.07 64 218.14 64 211 C66.289375 210.154375 68.57875 209.30875 70.9375 208.4375 C83.49610287 203.53938773 93.19884078 195.12077384 98.93359375 182.76171875 C105.22885925 166.45859528 103.61945379 152.83419435 96.77880859 137.2109375 C88.10402429 117.93778917 77.66420941 100.07026822 65.74414062 82.64477539 C65.26783203 81.94602295 64.79152344 81.24727051 64.30078125 80.52734375 C63.87966064 79.91624756 63.45854004 79.30515137 63.0246582 78.67553711 C62 77 62 77 61 74 C59.41870971 73.77668801 57.83478911 73.57195356 56.25 73.375 C54.92742187 73.20097656 54.92742187 73.20097656 53.578125 73.0234375 C50.63894987 72.99671773 49.47736678 73.4665489 47 75 C45.44510562 76.79773833 45.44510562 76.79773833 44.1171875 78.97265625 C43.59503662 79.78065674 43.07288574 80.58865723 42.53491211 81.42114258 C41.98714111 82.29279053 41.43937012 83.16443848 40.875 84.0625 C40.29951416 84.96572998 39.72402832 85.86895996 39.13110352 86.79956055 C37.40547849 89.52384109 35.69835662 92.25865021 34 95 C33.54254395 95.73798828 33.08508789 96.47597656 32.61376953 97.23632812 C9.35623446 133.37441797 9.35623446 133.37441797 6.31640625 174.56640625 C9.9186718 187.39047161 17.24806372 197.99559902 28.96484375 204.6953125 C33.9404904 207.24156431 38.67335735 209.22445245 44 211 C44 217.93 44 224.86 44 232 C12.69097796 232.70799296 -16.86125815 228.94805516 -40.75 206.24609375 C-41.4925 205.50488281 -42.235 204.76367188 -43 204 C-43.66 203.35160156 -44.32 202.70320312 -45 202.03515625 C-54.02043352 192.52870799 -57.39778075 180.33600659 -57.3125 167.5 C-57.30831055 166.62706299 -57.30412109 165.75412598 -57.29980469 164.85473633 C-57.15900835 156.63687363 -55.91430915 148.97351375 -54 141 C-53.74476563 139.90945313 -53.48953125 138.81890625 -53.2265625 137.6953125 C-52.23841248 133.76990919 -51.13286267 129.88533427 -50 126 C-49.73010254 125.05688965 -49.46020508 124.1137793 -49.18212891 123.14208984 C-36.9718002 80.84038929 -19.67149578 39.34299155 0 0 Z " fill="#F2EEEF" transform="translate(202,180)"/>
<path d="M0 0 C20.46 0 40.92 0 62 0 C63.32 3.63 64.64 7.26 66 11 C73.39735845 21.63370276 84.5251132 25.17145971 96.50512695 28.73291016 C105.9613162 31.64654661 113.23815854 36.51608071 118.2578125 45.16796875 C120.84698591 50.42779305 121.06276462 54.18762692 121 60 C120.39722733 60.00142502 119.79445465 60.00285004 119.17341614 60.00431824 C112.89501543 60.02401712 106.61758672 60.07829479 100.33959961 60.15258789 C97.99722265 60.17577332 95.65474136 60.19016486 93.31225586 60.19555664 C89.94318584 60.20484176 86.57575809 60.2458257 83.20703125 60.29296875 C82.16102249 60.2890361 81.11501373 60.28510345 80.03730774 60.28105164 C74.03094264 60.40052982 74.03094264 60.40052982 68.86206055 63.29418945 C66.74320498 66.03500086 66.74320498 66.03500086 66 70 C57.75 70 49.5 70 41 70 C41 71.65 41 73.3 41 75 C38.92299543 78.11550686 37.35032111 79.72329486 33.6171875 80.48828125 C29.04648907 80.72704908 26.69002226 80.48301558 22.875 77.8125 C21 75 21 75 21 70 C12.75 70 4.5 70 -4 70 C-4.99 67.69 -5.98 65.38 -7 63 C-10.25093638 61.06560842 -13.14380619 60.7416096 -16.88208008 60.68115234 C-17.82267776 60.66128265 -18.76327545 60.64141296 -19.7323761 60.62094116 C-21.2357679 60.60361435 -21.2357679 60.60361435 -22.76953125 60.5859375 C-23.80567062 60.56657135 -24.84181 60.5472052 -25.90934753 60.5272522 C-29.21031529 60.46759643 -32.51131819 60.42112669 -35.8125 60.375 C-38.05405145 60.33680737 -40.29558842 60.29775489 -42.53710938 60.2578125 C-48.02461086 60.16190642 -53.51219991 60.07681801 -59 60 C-59.15004609 51.14784895 -56.97821824 44.86226674 -51.2421875 37.8515625 C-44.91023325 31.78454358 -36.79276904 29.30030539 -28.66015625 26.5 C-27.53468384 26.11050171 -27.53468384 26.11050171 -26.38647461 25.71313477 C-24.9154906 25.20862044 -23.44114443 24.71376995 -21.96313477 24.23022461 C-14.14482989 21.58864501 -8.85096952 17.64371913 -4 11 C-2.68 7.37 -1.36 3.74 0 0 Z " fill="#FD9155" transform="translate(225,432)"/>
<path d="M0 0 C1.64332054 -0.00218285 1.64332054 -0.00218285 3.31983948 -0.00440979 C5.62511874 -0.00275782 7.93040984 0.00872415 10.2355957 0.02954102 C13.74022908 0.05848081 17.24334533 0.05013618 20.74804688 0.03710938 C22.99870518 0.04334849 25.24935876 0.05174078 27.5 0.0625 C28.5357164 0.05956436 29.5714328 0.05662872 30.63853455 0.05360413 C40.82350958 0.18393199 49.89668299 2.12413694 57.31640625 9.49609375 C62.89778966 16.52863685 65.48078357 22.36932065 65.62890625 31.37109375 C66.00849322 41.98106865 69.39112484 50.68289021 73.31640625 60.49609375 C35.03640625 60.49609375 -3.24359375 60.49609375 -42.68359375 60.49609375 C-40.70359375 55.21609375 -38.72359375 49.93609375 -36.68359375 44.49609375 C-36.15400764 40.7584379 -35.78501845 37.45940521 -35.68359375 33.74609375 C-35.00776926 23.25082494 -32.71103565 14.97611816 -24.87109375 7.49609375 C-17.42771735 1.18647667 -9.47243171 -0.10254305 0 0 Z " fill="#FD9155" transform="translate(240.68359375,59.50390625)"/>
<path d="M0 0 C3.82773666 1.27591222 4.19373607 2.53187358 6.1875 5.9765625 C7.10462769 7.5558252 7.10462769 7.5558252 8.0402832 9.16699219 C9.01034302 10.87870605 9.01034302 10.87870605 10 12.625 C10.33059418 13.20302368 10.66118835 13.78104736 11.00180054 14.37658691 C33.7446975 54.18300898 33.7446975 54.18300898 30.34765625 68.80859375 C27.48309927 77.6727379 23.10114985 83.66453557 14.75 87.9375 C6.89964973 91.53354554 -0.89052046 92.65038016 -9.27734375 89.94140625 C-17.87496464 85.94074786 -23.48206116 80.82376957 -27.4375 72.1875 C-31.4384591 60.69129439 -27.93340409 51.56634026 -23 41 C-22.70561035 40.36433105 -22.4112207 39.72866211 -22.10791016 39.07373047 C-15.77420755 25.56526447 -8.42272671 12.31922178 0 0 Z " fill="#FCD78D" transform="translate(255,281)"/>
<path d="M0 0 C33 0 66 0 100 0 C100 6.6 100 13.2 100 20 C67 20 34 20 0 20 C0 13.4 0 6.8 0 0 Z " fill="#C0AFB4" transform="translate(206,140)"/>
<path d="M0 0 C4.13618341 0.31500735 6.63956604 0.74787348 10.171875 3.0546875 C12.45061757 6.5830631 12.85442719 8.75690588 12.578125 12.89453125 C12.109375 15.0546875 12.109375 15.0546875 10.234375 18.1171875 C5.82911558 20.84844834 2.16014666 21.05656188 -2.890625 20.0546875 C-6.015625 18.1171875 -6.015625 18.1171875 -7.890625 15.0546875 C-8.57531721 11.89939754 -8.62653879 9.20371397 -7.890625 6.0546875 C-5.453125 3.0546875 -5.453125 3.0546875 -2.890625 1.0546875 C-1.890625 0.0546875 -1.890625 0.0546875 0 0 Z " fill="#040201" transform="translate(253.890625,491.9453125)"/>
</svg>
